<?xml version="1.0" encoding="UTF-8" standalone="no"?><!DOCTYPE svg PUBLIC "-//W3C//DTD SVG 1.1//EN" "http://www.w3.org/Graphics/SVG/1.1/DTD/svg11.dtd"><svg width="100%" height="100%" viewBox="0 0 284 95" version="1.1" xmlns="http://www.w3.org/2000/svg" xmlns:xlink="http://www.w3.org/1999/xlink" xml:space="preserve" xmlns:serif="http://www.serif.com/" style="fill-rule:evenodd;clip-rule:evenodd;stroke-linejoin:round;stroke-miterlimit:1.41421;"><rect id="Artboard1" x="0" y="0" width="283.373" height="94.637" style="fill:none;"/><clipPath id="_clip1"><rect id="Artboard11" serif:id="Artboard1" x="0" y="0" width="283.373" height="94.637"/></clipPath><g clip-path="url(#_clip1)"><g><g><path d="M24.662,66.515c3,0 5.655,-0.81 7.966,-2.43c2.31,-1.62 3.465,-4.065 3.465,-7.336c0,-3.27 -1.245,-5.775 -3.735,-7.515c-2.491,-1.74 -6.031,-3.255 -10.621,-4.546c-4.591,-1.29 -7.921,-2.415 -9.991,-3.375c-2.07,-0.96 -4.035,-2.22 -5.896,-3.78c-3.72,-3.12 -5.58,-7.951 -5.58,-14.491c0,-5.341 1.905,-9.931 5.715,-13.771c3.811,-3.841 9.016,-5.761 15.617,-5.761c3.18,0 6.495,0.465 9.945,1.395c3.451,0.93 5.596,1.395 6.436,1.395c0.84,0 1.59,-0.6 2.25,-1.8l0.99,0l0.63,18.182l-1.44,0c-2.88,-5.221 -5.895,-9.406 -9.046,-12.556c-3.15,-3.15 -6.57,-4.726 -10.26,-4.726c-3.691,0 -6.556,0.855 -8.596,2.566c-2.04,1.71 -3.06,3.99 -3.06,6.84c0,2.85 1.215,5.041 3.645,6.571c2.43,1.53 5.415,2.775 8.956,3.735c3.54,0.96 5.865,1.62 6.975,1.98c1.11,0.36 2.49,0.855 4.141,1.485c1.65,0.63 3,1.29 4.05,1.98c1.05,0.69 2.16,1.56 3.33,2.611c1.17,1.05 2.085,2.205 2.745,3.465c1.62,2.88 2.431,6.3 2.431,10.261c0,6.48 -2.026,11.686 -6.076,15.616c-4.05,3.93 -9.376,5.895 -15.976,5.895c-3.42,0 -7.336,-0.45 -11.746,-1.35c-4.41,-0.9 -6.856,-1.35 -7.336,-1.35c-0.84,0 -1.65,0.9 -2.43,2.7l-1.26,0l-0.9,-21.421l1.53,0c2.64,5.22 6.016,9.78 10.126,13.681c4.11,3.9 8.446,5.85 13.006,5.85Z" style="fill:#fff;fill-rule:nonzero;"/><path d="M63.545,18.451c-3.18,0 -5.445,-0.81 -6.796,-2.43c-1.35,-1.62 -2.025,-3.63 -2.025,-6.03c0,-2.4 0.735,-4.381 2.205,-5.941c1.471,-1.56 3.706,-2.34 6.706,-2.34c3,0 5.28,0.705 6.84,2.115c1.561,1.41 2.341,3.421 2.341,6.031c0,2.61 -0.75,4.695 -2.251,6.255c-1.5,1.56 -3.84,2.34 -7.02,2.34Zm-13.591,6.211l22.052,0l0,41.223l5.04,0l0,1.62l-26.732,0l0,-1.62l4.95,0l0,-39.603l-5.31,0l0,-1.62Z" style="fill:#fff;fill-rule:nonzero;"/><path d="M78.846,24.662l21.692,0l0,8.281c1.98,-6.121 6.345,-9.181 13.096,-9.181c6.75,0 10.846,3.24 12.286,9.721c2.1,-6.481 6.51,-9.721 13.231,-9.721c8.821,0 13.231,5.01 13.231,15.031l0,27.092l5.04,0l0,1.62l-24.932,0l0,-1.62l3.151,0l0,-29.252c0,-4.561 -0.39,-7.231 -1.171,-8.011c-0.36,-0.36 -0.84,-0.54 -1.44,-0.54c-1.74,0 -3.27,1.17 -4.59,3.51c-1.32,2.341 -1.98,5.311 -1.98,8.911l0,25.382l3.24,0l0,1.62l-23.132,0l0,-1.62l3.151,0l0,-29.252c0,-4.561 -0.39,-7.231 -1.171,-8.011c-0.36,-0.36 -0.84,-0.54 -1.44,-0.54c-1.68,0 -3.195,1.275 -4.545,3.825c-1.35,2.551 -2.025,5.596 -2.025,9.136l0,24.842l3.24,0l0,1.62l-24.932,0l0,-1.62l4.951,0l0,-39.603l-4.951,0l0,-1.62Z" style="fill:#fff;fill-rule:nonzero;"/><path d="M191.625,43.293c0,-6.18 -0.3,-10.335 -0.9,-12.466c-0.6,-2.13 -1.77,-3.195 -3.51,-3.195c-1.741,0 -3.301,1.125 -4.681,3.375c-1.38,2.251 -2.07,5.266 -2.07,9.046l0,16.471c0,2.581 0.51,4.771 1.53,6.571c1.02,1.8 2.52,2.7 4.501,2.7c1.98,0 3.33,-1.32 4.05,-3.96c0.72,-2.64 1.08,-7.261 1.08,-13.861l0,-4.681Zm-11.341,-18.631l0,7.11c2.34,-5.34 6.481,-8.01 12.421,-8.01c5.16,0 9.166,1.86 12.016,5.58c2.85,3.721 4.275,9.361 4.275,16.922c0,7.56 -1.545,13.141 -4.635,16.741c-3.09,3.6 -7.726,5.4 -13.906,5.4c-2.88,0 -5.041,-0.36 -6.481,-1.08c-1.44,-0.72 -2.61,-1.83 -3.51,-3.33l0,23.312l11.611,0l0,1.62l-33.303,0l0,-1.62l4.951,0l0,-61.025l-4.771,0l0,-1.62l21.332,0Z" style="fill:#fff;fill-rule:nonzero;"/><path d="M211.336,0l22.052,0l0,65.885l5.041,0l0,1.62l-26.733,0l0,-1.62l4.951,0l0,-64.265l-5.311,0l0,-1.62Z" style="fill:#fff;fill-rule:nonzero;"/><path d="M263.811,68.405c-7.741,0 -13.547,-1.995 -17.417,-5.985c-3.87,-3.99 -5.805,-9.541 -5.805,-16.651c0,-7.111 2.175,-12.556 6.525,-16.337c4.351,-3.78 9.886,-5.67 16.607,-5.67c13.621,0 20.161,6.84 19.621,20.521l-25.382,0l0,3.511c0,5.88 0.75,10.321 2.25,13.321c1.5,3 4.111,4.5 7.831,4.5c6.96,0 11.521,-3.72 13.681,-11.161l1.62,0.27c-1.14,4.321 -3.195,7.681 -6.165,10.081c-2.971,2.4 -7.426,3.6 -13.366,3.6Zm-5.761,-25.922l9.271,0l0,-4.41c0,-4.86 -0.285,-8.176 -0.855,-9.946c-0.57,-1.77 -1.71,-2.655 -3.421,-2.655c-1.71,0 -2.97,0.945 -3.78,2.835c-0.81,1.89 -1.215,5.146 -1.215,9.766l0,4.41Z" style="fill:#fff;fill-rule:nonzero;"/></g><g><path d="M9.909,77.877l3.698,0l0,16.428l-3.698,0l0,-6.969l-6.211,0l0,6.969l-3.698,0l0,-16.428l3.698,0l0,6.282l6.211,0l0,-6.282Z" style="fill:#fff;fill-rule:nonzero;"/><path d="M31.41,86.079c0,0.806 0.099,1.533 0.297,2.181c0.197,0.648 0.482,1.205 0.853,1.671c0.371,0.467 0.826,0.826 1.363,1.079c0.537,0.253 1.154,0.379 1.849,0.379c0.68,0 1.292,-0.126 1.837,-0.379c0.546,-0.253 1.004,-0.612 1.375,-1.079c0.372,-0.466 0.656,-1.023 0.854,-1.671c0.197,-0.648 0.296,-1.375 0.296,-2.181c0,-0.806 -0.099,-1.537 -0.296,-2.193c-0.198,-0.655 -0.482,-1.216 -0.854,-1.683c-0.371,-0.466 -0.829,-0.825 -1.375,-1.078c-0.545,-0.253 -1.157,-0.38 -1.837,-0.38c-0.695,0 -1.312,0.131 -1.849,0.392c-0.537,0.26 -0.992,0.624 -1.363,1.09c-0.371,0.466 -0.656,1.027 -0.853,1.683c-0.198,0.656 -0.297,1.379 -0.297,2.169Zm12.541,0c0,1.407 -0.21,2.643 -0.629,3.71c-0.418,1.067 -0.991,1.96 -1.718,2.679c-0.727,0.719 -1.592,1.26 -2.596,1.624c-1.004,0.363 -2.082,0.545 -3.236,0.545c-1.122,0 -2.181,-0.182 -3.176,-0.545c-0.996,-0.364 -1.865,-0.905 -2.608,-1.624c-0.743,-0.719 -1.328,-1.612 -1.754,-2.679c-0.427,-1.067 -0.64,-2.303 -0.64,-3.71c0,-1.406 0.221,-2.643 0.663,-3.71c0.443,-1.066 1.04,-1.963 1.79,-2.69c0.751,-0.727 1.62,-1.273 2.608,-1.636c0.988,-0.364 2.027,-0.545 3.117,-0.545c1.122,0 2.181,0.181 3.177,0.545c0.995,0.363 1.865,0.909 2.607,1.636c0.743,0.727 1.328,1.624 1.755,2.69c0.426,1.067 0.64,2.304 0.64,3.71Z" style="fill:#fff;fill-rule:nonzero;"/><path d="M62.255,94.305c-0.654,-1.38 -1.299,-2.812 -1.935,-4.296c-0.636,-1.484 -1.24,-2.952 -1.812,-4.405c-0.573,-1.452 -1.099,-2.842 -1.579,-4.171c-0.48,-1.328 -0.895,-2.513 -1.244,-3.556l4.077,0c0.308,0.951 0.65,1.975 1.026,3.072c0.377,1.096 0.76,2.189 1.151,3.279c0.39,1.089 0.764,2.132 1.122,3.13c0.358,0.998 0.7,1.86 1.028,2.585c0.308,-0.721 0.646,-1.58 1.012,-2.578c0.366,-0.997 0.744,-2.041 1.135,-3.13c0.39,-1.089 0.773,-2.182 1.15,-3.279c0.376,-1.096 0.718,-2.123 1.027,-3.079l3.937,0c-0.368,1.048 -0.791,2.234 -1.27,3.56c-0.479,1.326 -1.003,2.715 -1.572,4.169c-0.568,1.454 -1.169,2.924 -1.801,4.41c-0.632,1.485 -1.273,2.915 -1.925,4.289l-3.527,0Z" style="fill:#fff;fill-rule:nonzero;"/><path d="M85.365,94.305l0,-16.428l11.094,0l0,3.105l-7.396,0l0,3.224l6.566,0l0,3.035l-6.566,0l0,3.959l7.941,0l0,3.105l-11.639,0Z" style="fill:#fff;fill-rule:nonzero;"/><path d="M115.448,77.687c2.465,0 4.354,0.439 5.665,1.316c1.312,0.877 1.968,2.24 1.968,4.089c0,1.154 -0.265,2.09 -0.794,2.809c-0.53,0.72 -1.292,1.285 -2.288,1.695c0.332,0.411 0.68,0.882 1.043,1.411c0.364,0.529 0.723,1.083 1.079,1.659c0.355,0.577 0.699,1.178 1.031,1.802c0.332,0.624 0.64,1.237 0.925,1.837l-4.135,0c-0.301,-0.537 -0.606,-1.082 -0.916,-1.636c-0.309,-0.553 -0.626,-1.09 -0.952,-1.612c-0.325,-0.521 -0.646,-1.015 -0.963,-1.481c-0.318,-0.466 -0.635,-0.889 -0.952,-1.268l-1.826,0l0,5.997l-3.698,0l0,-16.191c0.806,-0.158 1.64,-0.269 2.501,-0.332c0.862,-0.063 1.632,-0.095 2.312,-0.095Zm0.213,3.153c-0.269,0 -0.51,0.008 -0.723,0.024c-0.213,0.016 -0.415,0.032 -0.605,0.047l0,4.457l1.043,0c1.391,0 2.387,-0.174 2.987,-0.521c0.601,-0.348 0.901,-0.941 0.901,-1.778c0,-0.806 -0.304,-1.379 -0.912,-1.719c-0.609,-0.34 -1.506,-0.51 -2.691,-0.51Z" style="fill:#fff;fill-rule:nonzero;"/><path d="M141.832,91.484c0.522,0 0.952,-0.043 1.292,-0.13c0.34,-0.087 0.613,-0.206 0.818,-0.356c0.205,-0.15 0.348,-0.328 0.427,-0.533c0.079,-0.206 0.118,-0.435 0.118,-0.688c0,-0.537 -0.253,-0.983 -0.758,-1.339c-0.506,-0.356 -1.375,-0.739 -2.608,-1.15c-0.537,-0.189 -1.075,-0.407 -1.612,-0.652c-0.537,-0.245 -1.019,-0.553 -1.446,-0.924c-0.427,-0.372 -0.774,-0.822 -1.043,-1.351c-0.269,-0.53 -0.403,-1.174 -0.403,-1.932c0,-0.759 0.142,-1.443 0.427,-2.051c0.284,-0.608 0.687,-1.126 1.209,-1.553c0.521,-0.426 1.153,-0.754 1.896,-0.984c0.743,-0.229 1.58,-0.343 2.513,-0.343c1.106,0 2.062,0.118 2.868,0.355c0.806,0.237 1.47,0.498 1.992,0.783l-1.067,2.915c-0.458,-0.237 -0.968,-0.446 -1.529,-0.628c-0.561,-0.182 -1.237,-0.272 -2.027,-0.272c-0.885,0 -1.521,0.122 -1.908,0.367c-0.388,0.245 -0.581,0.62 -0.581,1.126c0,0.3 0.071,0.553 0.213,0.759c0.142,0.205 0.344,0.391 0.605,0.557c0.26,0.166 0.561,0.316 0.901,0.45c0.339,0.135 0.715,0.273 1.126,0.415c0.853,0.316 1.596,0.628 2.228,0.936c0.632,0.309 1.158,0.668 1.576,1.079c0.419,0.411 0.731,0.893 0.937,1.446c0.205,0.553 0.308,1.225 0.308,2.015c0,1.533 -0.537,2.722 -1.612,3.568c-1.075,0.845 -2.695,1.268 -4.86,1.268c-0.727,0 -1.383,-0.043 -1.967,-0.13c-0.585,-0.087 -1.103,-0.194 -1.553,-0.32c-0.451,-0.127 -0.838,-0.261 -1.162,-0.403c-0.324,-0.143 -0.596,-0.277 -0.818,-0.403l1.044,-2.94c0.489,0.269 1.094,0.51 1.813,0.723c0.719,0.214 1.6,0.32 2.643,0.32Z" style="fill:#fff;fill-rule:nonzero;"/></g></g></g></svg>